<svg xmlns="http://www.w3.org/2000/svg" width="103.72" height="41.061" viewBox="0 0 103.72 41.061">
  <g id="Group_18" data-name="Group 18" transform="translate(-185.293 -185.01)">
    <g id="Group_1" data-name="Group 1" transform="translate(223.899 185.033)">
      <path id="Path_1" data-name="Path 1" d="M270.346,201.7q-.141.129-.275.267a1.885,1.885,0,0,1-2.667-.018l-13.588-13.588a1.881,1.881,0,0,1-.026-2.648l.027-.027a1.879,1.879,0,0,1,2.655.017l13.962,13.962a1.4,1.4,0,0,1-.089,2.034Z" transform="translate(-253.26 -185.09)"/>
      <path id="Path_2" data-name="Path 2" d="M311.629,243.324c-.066.066-.133.132-.2.2a1.761,1.761,0,0,1-2.477-.026l-13.767-13.767a1.773,1.773,0,0,1,.076-2.572l.067-.065a1.777,1.777,0,0,1,2.516-.019l13.766,13.766A1.762,1.762,0,0,1,311.629,243.324Z" transform="translate(-271.149 -202.982)"/>
      <path id="Path_3" data-name="Path 3" d="M270.4,229.726,256.622,243.5a1.76,1.76,0,0,1-2.475.024c-.066-.066-.133-.13-.2-.2a1.762,1.762,0,0,1,.017-2.489l13.766-13.766a1.777,1.777,0,0,1,2.515.019l.067.065a1.77,1.77,0,0,1,.08,2.572Z" transform="translate(-253.34 -202.982)"/>
      <path id="Path_4" data-name="Path 4" d="M311.886,188.233,298.119,202a1.772,1.772,0,0,1-2.572-.076l-.065-.066a1.775,1.775,0,0,1-.022-2.513l13.773-13.773a1.759,1.759,0,0,1,2.482-.015l.2.2A1.762,1.762,0,0,1,311.886,188.233Z" transform="translate(-271.27 -185.051)"/>
      <rect id="Rectangle_1" data-name="Rectangle 1" width="3.758" height="3.758" rx="1.879" transform="translate(17.888 20.597) rotate(-45)"/>
    </g>
    <path id="Path_5" data-name="Path 5" d="M199.846,226.071c-8.3,0-14.553-5.687-14.553-13.23V186.888a1.878,1.878,0,0,1,1.878-1.878h0a1.878,1.878,0,0,1,1.878,1.878v25.951c0,5.551,4.541,9.581,10.8,9.581s10.8-4.03,10.8-9.581V186.888a1.878,1.878,0,0,1,1.878-1.878h0a1.878,1.878,0,0,1,1.878,1.878v25.951C214.4,220.382,208.142,226.071,199.846,226.071Z"/>
    <g id="Group_2" data-name="Group 2" transform="translate(274.511 185.168)">
      <path id="Path_6" data-name="Path 6" d="M356.667,239.238H342.38V237.3h14.287Zm0,9.223H342.38v-1.936h14.287Zm-6.506-1.318h-1.77v-8.38h1.77Z" transform="translate(-342.37 -207.758)"/>
      <path id="Path_7" data-name="Path 7" d="M356.871,216.074a5.612,5.612,0,0,1-.71,2.83,5.215,5.215,0,0,1-1.956,1.966,5.547,5.547,0,0,1-2.83.72h-9v-1.935h8.955a3.856,3.856,0,0,0,1.956-.474,3.331,3.331,0,0,0,1.276-1.287,3.934,3.934,0,0,0,0-3.664,3.3,3.3,0,0,0-1.276-1.256,3.88,3.88,0,0,0-1.936-.463h-8.975v-1.956H351.4a5.5,5.5,0,0,1,2.821.721,5.273,5.273,0,0,1,1.946,1.956,5.6,5.6,0,0,1,.709,2.842Z" transform="translate(-342.37 -196.204)"/>
      <path id="Path_8" data-name="Path 8" d="M356.665,194.21h-1.688v-4.323a2.55,2.55,0,0,0-.731-1.935,2.451,2.451,0,0,0-1.76-.7,2.608,2.608,0,0,0-1.267.309,2.249,2.249,0,0,0-.9.9,2.749,2.749,0,0,0-.332,1.368v4.385H348.3v-4.1a2.359,2.359,0,0,0-.546-1.637,2.008,2.008,0,0,0-1.576-.607,1.958,1.958,0,0,0-1.576.639,2.509,2.509,0,0,0-.545,1.688v4.014h-1.688v-4.055a4.883,4.883,0,0,1,.5-2.336,3.555,3.555,0,0,1,1.328-1.42,3.513,3.513,0,0,1,1.811-.484,3.34,3.34,0,0,1,2.017.628,4.125,4.125,0,0,1,1.359,1.842l-.618-.166a4.6,4.6,0,0,1,1.493-2.151,3.74,3.74,0,0,1,2.357-.772,3.816,3.816,0,0,1,2.039.556,4,4,0,0,1,1.451,1.6,5.413,5.413,0,0,1,.546,2.542Zm0,1.3H342.378v-1.935h14.287Z" transform="translate(-342.368 -185.292)"/>
    </g>
  </g>
</svg>
